<svg width="16" height="16" viewBox="0 0 16 16" fill="none" xmlns="http://www.w3.org/2000/svg">
<g clip-path="url(#clip0_583_5607)">
<path d="M8.00195 15.5C5.997 15.5 4.11086 14.7129 2.69997 13.302C1.28908 11.8911 0.501953 10.005 0.501953 8C0.501953 5.99505 1.28908 4.10891 2.69997 2.69802C4.11086 1.28713 5.997 0.5 8.00195 0.5C10.0069 0.5 11.893 1.28713 13.3039 2.69802C16.2297 5.62376 16.2297 10.3762 13.3039 13.302C11.893 14.7129 10.0069 15.5 8.00195 15.5ZM8.00195 1.39109C6.23463 1.39109 4.57126 2.07426 3.32374 3.32178C2.07621 4.56931 1.39304 6.23267 1.39304 8C1.39304 9.76733 2.07621 11.4307 3.32374 12.6782C4.57126 13.9257 6.23463 14.6089 8.00195 14.6089C9.76928 14.6089 11.4326 13.9257 12.6802 12.6782C15.2643 10.0941 15.2643 5.90594 12.6802 3.32178C11.4326 2.07426 9.76928 1.39109 8.00195 1.39109Z" fill="black"/>
<path d="M11.6382 4.95189L4.95921 11.6307L4.37109 11.0426L11.0501 4.36377L11.6382 4.95189Z" fill="black"/>
<path d="M4.58618 5.16319L5.18024 4.58398L11.6406 11.0444L11.0466 11.6384L4.58618 5.16319Z" fill="black"/>
</g>
<defs>
<clipPath id="clip0_583_5607">
<rect width="16" height="16" fill="white"/>
</clipPath>
</defs>
</svg>
